<mxfile host="app.diagrams.net" modified="2020-10-19T09:01:16.946Z" agent="5.0 (Windows NT 10.0; Win64; x64) AppleWebKit/537.36 (KHTML, like Gecko) Chrome/75.0.3770.80 Safari/537.36" etag="phzhZSwF4kSiNJPELjkJ" version="13.8.0" type="github">
  <diagram id="0brqKD68TNb7L7T8HhsK" name="Page-1">
    <mxGraphModel dx="782" dy="469" grid="1" gridSize="10" guides="1" tooltips="1" connect="1" arrows="1" fold="1" page="1" pageScale="1" pageWidth="827" pageHeight="1169" math="0" shadow="0">
      <root>
        <mxCell id="0" />
        <mxCell id="1" parent="0" />
        <mxCell id="J2SywfsjwAlIBZo75sQG-1" value="为中华之崛起" style="rounded=0;whiteSpace=wrap;html=1;" vertex="1" parent="1">
          <mxGeometry x="320" y="20" width="120" height="60" as="geometry" />
        </mxCell>
        <mxCell id="J2SywfsjwAlIBZo75sQG-2" value="" style="endArrow=classic;startArrow=classic;html=1;" edge="1" parent="1">
          <mxGeometry width="50" height="50" relative="1" as="geometry">
            <mxPoint x="380" y="270" as="sourcePoint" />
            <mxPoint x="380" y="81" as="targetPoint" />
          </mxGeometry>
        </mxCell>
        <mxCell id="J2SywfsjwAlIBZo75sQG-3" value="先好好学习" style="ellipse;whiteSpace=wrap;html=1;aspect=fixed;" vertex="1" parent="1">
          <mxGeometry x="340" y="270" width="80" height="80" as="geometry" />
        </mxCell>
        <mxCell id="J2SywfsjwAlIBZo75sQG-4" value="" style="endArrow=classic;html=1;" edge="1" parent="1" target="J2SywfsjwAlIBZo75sQG-5">
          <mxGeometry width="50" height="50" relative="1" as="geometry">
            <mxPoint x="380" y="270" as="sourcePoint" />
            <mxPoint x="550" y="270" as="targetPoint" />
          </mxGeometry>
        </mxCell>
        <mxCell id="J2SywfsjwAlIBZo75sQG-9" value="" style="edgeStyle=orthogonalEdgeStyle;rounded=0;orthogonalLoop=1;jettySize=auto;html=1;" edge="1" parent="1" source="J2SywfsjwAlIBZo75sQG-5" target="J2SywfsjwAlIBZo75sQG-8">
          <mxGeometry relative="1" as="geometry" />
        </mxCell>
        <mxCell id="J2SywfsjwAlIBZo75sQG-5" value="再好好赚钱" style="rounded=0;whiteSpace=wrap;html=1;" vertex="1" parent="1">
          <mxGeometry x="490" y="240" width="120" height="60" as="geometry" />
        </mxCell>
        <mxCell id="J2SywfsjwAlIBZo75sQG-11" value="" style="edgeStyle=orthogonalEdgeStyle;rounded=0;orthogonalLoop=1;jettySize=auto;html=1;" edge="1" parent="1" source="J2SywfsjwAlIBZo75sQG-8" target="J2SywfsjwAlIBZo75sQG-10">
          <mxGeometry relative="1" as="geometry" />
        </mxCell>
        <mxCell id="J2SywfsjwAlIBZo75sQG-8" value="再报效祖国" style="rounded=0;whiteSpace=wrap;html=1;" vertex="1" parent="1">
          <mxGeometry x="490" y="380" width="120" height="60" as="geometry" />
        </mxCell>
        <mxCell id="J2SywfsjwAlIBZo75sQG-10" value="从现在开始" style="shape=parallelogram;perimeter=parallelogramPerimeter;whiteSpace=wrap;html=1;fixedSize=1;rounded=0;" vertex="1" parent="1">
          <mxGeometry x="290" y="380" width="120" height="60" as="geometry" />
        </mxCell>
      </root>
    </mxGraphModel>
  </diagram>
</mxfile>
